# xmcd CD database file
#
# Track frame offsets:
#	150
#	4784
#	16957
#	43597
#	62129
#	79877
#	85327
#	105712
#	119057
#	136507
#	148982
#	163822
#	165534
#	179962
#	183069
#	196689
#	214507
#	229223
#
# Disc length: 3226 seconds
#
# Revision: 2
# Processed by: cddbd v1.4b41PL1 Copyright (c) Steve Scherf et al.
# Submitted via: Feurio! 1.60 - http://www.feurio.com
#
DISCID=f80c9812
DTITLE=Various Artist - Saving Grace
DYEAR=1900
DGENRE=
TTITLE0=??? - Track: 1
TTITLE1=??? - Track: 2
TTITLE2=??? - Track: 3
TTITLE3=??? - Track: 4
TTITLE4=??? - Track: 5
TTITLE5=??? - Track: 6
TTITLE6=??? - Track: 7
TTITLE7=??? - Track: 8
TTITLE8=??? - Track: 9
TTITLE9=??? - Track: 10
TTITLE10=??? - Track: 11
TTITLE11=??? - Track: 12
TTITLE12=??? - Track: 13
TTITLE13=??? - Track: 14
TTITLE14=??? - Track: 15
TTITLE15=??? - Track: 16
TTITLE16=??? - Track: 17
TTITLE17=??? - Track: 18
EXTD=
EXTT0=
EXTT1=
EXTT2=
EXTT3=
EXTT4=
EXTT5=
EXTT6=
EXTT7=
EXTT8=
EXTT9=
EXTT10=
EXTT11=
EXTT12=
EXTT13=
EXTT14=
EXTT15=
EXTT16=
EXTT17=
PLAYORDER=
